<?xml version="1.0" encoding="UTF-8"?>
<svg width="270px" height="160px" viewBox="0 0 270 160" version="1.1" xmlns="http://www.w3.org/2000/svg" xmlns:xlink="http://www.w3.org/1999/xlink">
    <title>Logo</title>
    <g id="Page-1" stroke="none" stroke-width="1" fill="none" fill-rule="evenodd">
        <g id="Logo" fill="#000000">
            <path d="M26.5891367,12.7844654 C25.1870719,18.4835782 28.2533611,21.5029323 31.9799866,24.5330092 L32.4918981,24.9465207 C32.6368232,25.0629816 32.782465,25.1796382 32.9286087,25.2966422 L33.3683305,25.6488483 C34.0295272,26.1791762 34.6965366,26.719613 35.3497833,27.2839894 L35.7830274,27.6639387 C39.301028,30.7983008 42.2821323,34.733382 41.5671884,41.7012202 C45.9713841,37.4110565 42.5962855,27.3233533 51.1324709,19.542755 C47.0868901,37.4110565 69.0808083,35.2784358 61.5522033,65.0361867 C64.5883169,63.1755389 66.771718,60.1123247 68.1024067,55.8465441 C70.785853,60.1123247 69.7834814,67.6944689 65.0952918,78.5929765 C68.0454436,77.2776825 70.1915334,75.0967907 71.5335612,72.0503011 C72.5831106,76.3515306 73.1078854,80.150116 73.1078854,83.4460573 C73.1078854,95.4054307 67.3646262,106.023394 58.4857399,112.692315 C58.1976431,106.611823 57.8418145,100.814354 57.4180943,95.2980538 C56.6364199,85.1216447 54.8577386,79.6979878 51.2644873,74.5260296 C47.6712361,69.3540714 43.6643877,67.6924079 38.0336082,66.9125638 C32.4028286,66.1327196 26.8324477,67.3540894 20.6723951,70.5606812 C14.5123425,73.7672731 10.4982742,80.2847011 12.2689378,84.0125949 C14.0396014,87.7404886 19.7481206,90.1425678 26.4074326,89.9180841 C33.0667446,89.6936003 37.7247219,87.3210439 39.4471429,86.6795027 C41.169564,86.0379615 41.8959331,88.1040711 40.5789514,88.7873896 C39.7009636,89.2429353 38.1443983,90.0536831 35.9092553,91.219633 C36.781358,96.1210828 37.2174094,101.129484 37.2174094,106.244837 C37.2174094,110.423541 37.1502592,115.007238 37.0159587,119.995926 L36.5539427,120 C16.3657576,120 -2.13162821e-14,103.634242 -2.13162821e-14,83.4460573 C-2.13162821e-14,77.7546771 0.461662898,72.4089764 1.38498869,67.4089553 C2.13692821,70.2889674 3.73778379,72.4066626 6.18755542,73.7620408 C2.54939388,57.1124558 5.985936,51.0068126 10.1633099,45.3720688 L10.5336632,44.8758513 C10.6576477,44.710682 10.7821119,44.5456637 10.9068947,44.3805402 L11.2820375,43.8845978 L11.6581247,43.3864864 L12.0341895,42.8846682 C13.4118707,41.0359931 14.7695996,39.081555 15.8928842,36.6802379 C14.6995002,43.9808673 13.1041519,50.1608685 19.1297852,55.8465441 C18.514584,50.8980823 19.8093604,48.240251 21.2579371,45.6919211 L21.5592611,45.1655275 L21.8615179,44.637966 C23.1180637,42.4313984 24.3088909,40.0826312 24.3088909,36.1943075 C24.3088909,33.5355126 23.7945027,31.5694184 23.2789365,29.7770593 L23.1686271,29.3954524 C23.0783875,29.084137 22.9892453,28.7770484 22.903992,28.471364 L22.8037333,28.105036 C21.839725,24.5058848 21.5726782,20.9450208 26.5891367,12.7844654 Z M26.9524178,73.2974908 C28.0324979,73.2974908 28.9080759,74.1730687 28.9080759,75.2531489 C28.9080759,76.3332291 28.0324979,77.208807 26.9524178,77.208807 C25.8723376,77.208807 24.9967596,76.3332291 24.9967596,75.2531489 C24.9967596,74.1730687 25.8723376,73.2974908 26.9524178,73.2974908 Z M19.1297852,71.9937187 C20.2098654,71.9937187 21.0854434,72.8692966 21.0854434,73.9493768 C21.0854434,75.029457 20.2098654,75.9050349 19.1297852,75.9050349 C18.0497051,75.9050349 17.1741271,75.029457 17.1741271,73.9493768 C17.1741271,72.8692966 18.0497051,71.9937187 19.1297852,71.9937187 Z M20.8543213,19.9036209 C19.1060836,21.6874372 19.4856258,26.879424 21.4952639,31.4383243 C23.504902,35.9972245 20.8543213,39.4281093 18.0137159,43.6519718 C18.5096432,38.03127 17.9922105,36.6969533 15.579163,32.3754567 C13.1661155,28.0539602 16.4718084,22.3329873 20.8543213,19.9036209 Z M38.0104958,7.82271798 C40.8728176,11.7457375 44.4484297,12.4591645 44.8921287,17.5306669 C45.0650961,19.5076933 44.4924016,20.7140144 43.8298672,21.9584303 L43.6554254,22.2844565 C42.6602605,24.142862 41.5933933,26.2382042 42.5733762,31.1832116 C37.9086576,24.8600013 38.1508132,22.0474025 38.8677106,19.301844 L38.9614668,18.951446 C38.9933509,18.8345912 39.0257531,18.7175924 39.0583319,18.6001844 L39.1562567,18.246467 C39.8243628,15.8173813 40.4231725,13.1047822 38.0104958,7.82271798 Z M27.6393291,-5.32907052e-15 C31.9083801,2.92789876 35.8295611,4.83368962 36.1771523,9.80447542 C36.3102723,11.7081806 35.983685,13.0300802 35.6669895,14.279156 L35.5624349,14.6935156 C35.0993852,16.5522802 34.7759919,18.3744365 36.1771523,21.8777978 C29.4668618,17.8133123 29.6470347,14.8384368 30.2114495,11.474297 L30.2779093,11.0843153 L30.2779093,11.0843153 L30.3455585,10.6903738 C30.8405844,7.78571604 31.2523875,4.52090501 27.6393291,-5.32907052e-15 Z" id="Combined-Shape"></path>
            <path d="M108.856,115.216 C109.24,115.216 109.528,115.072 109.72,114.784 C109.912,114.496 110.008,114.16 110.008,113.776 C109.96,113.2 109.84,112.84 109.648,112.696 C109.456,112.552 109.168,112.48 108.784,112.48 L108.784,112.48 L108.352,112.48 C107.104,112.48 106.216,112.264 105.688,111.832 C105.16,111.4 104.848,110.896 104.752,110.32 C104.656,109.744 104.608,108.832 104.608,107.584 L104.608,107.584 L104.608,63.88 C104.608,62.968 104.224,62.512 103.456,62.512 L103.456,62.512 L103.24,62.512 C102.808,62.56 102.256,62.704 101.584,62.944 C99.424,63.76 96.832,64.384 93.808,64.816 C93.424,64.864 93.136,65.02 92.944,65.284 C92.752,65.548 92.656,65.824 92.656,66.112 C92.656,66.736 92.8,67.132 93.088,67.3 C93.376,67.468 93.808,67.552 94.384,67.552 C95.632,67.552 96.52,67.768 97.048,68.2 C97.576,68.632 97.876,69.136 97.948,69.712 C98.02,70.288 98.056,71.2 98.056,72.448 L98.056,107.584 C98.056,108.832 98.008,109.744 97.912,110.32 C97.816,110.896 97.504,111.4 96.976,111.832 C96.448,112.264 95.56,112.48 94.312,112.48 C93.688,112.48 93.268,112.54 93.052,112.66 C92.836,112.78 92.704,113.152 92.656,113.776 C92.656,114.16 92.764,114.496 92.98,114.784 C93.196,115.072 93.472,115.216 93.808,115.216 C96.64,115.072 99.136,115 101.296,115 C103.552,115 106.072,115.072 108.856,115.216 Z M127.44,115.864 C129.312,115.864 130.932,115.612 132.3,115.108 C133.668,114.604 134.784,114.004 135.648,113.308 C136.512,112.612 137.64,111.616 139.032,110.32 L139.032,110.32 L139.176,110.32 L139.176,114.352 C139.176,114.88 139.2,115.252 139.248,115.468 C139.296,115.684 139.488,115.792 139.824,115.792 L139.824,115.792 L151.416,115 C152.232,114.856 152.64,114.448 152.64,113.776 C152.64,112.864 152.232,112.408 151.416,112.408 C147.624,112.408 145.728,110.992 145.728,108.16 L145.728,108.16 L145.728,83.248 C145.728,82.336 145.344,81.88 144.576,81.88 L144.576,81.88 L144.36,81.88 C143.928,81.928 143.376,82.072 142.704,82.312 C140.544,83.128 137.952,83.752 134.928,84.184 C134.544,84.232 134.256,84.388 134.064,84.652 C133.872,84.916 133.776,85.192 133.776,85.48 C133.776,86.104 133.92,86.5 134.208,86.668 C134.496,86.836 134.928,86.92 135.504,86.92 C136.752,86.92 137.64,87.136 138.168,87.568 C138.696,88 138.996,88.504 139.068,89.08 C139.14,89.656 139.176,90.568 139.176,91.816 L139.176,91.816 L139.176,106.936 C138.648,108.04 137.592,109.144 136.008,110.248 C134.424,111.352 132.504,111.904 130.248,111.904 C128.424,111.904 126.816,111.316 125.424,110.14 C124.032,108.964 123.336,107.272 123.336,105.064 L123.336,105.064 L123.336,83.248 C123.336,82.336 122.952,81.88 122.184,81.88 L122.184,81.88 L121.968,81.88 C121.536,81.928 120.984,82.072 120.312,82.312 C118.152,83.128 115.56,83.752 112.536,84.184 C112.152,84.232 111.864,84.388 111.672,84.652 C111.48,84.916 111.384,85.192 111.384,85.48 C111.384,86.104 111.528,86.5 111.816,86.668 C112.104,86.836 112.536,86.92 113.112,86.92 C114.36,86.92 115.248,87.136 115.776,87.568 C116.304,88 116.604,88.504 116.676,89.08 C116.748,89.656 116.784,90.568 116.784,91.816 L116.784,91.816 L116.784,105.136 C116.784,108.352 117.744,110.944 119.664,112.912 C121.584,114.88 124.176,115.864 127.44,115.864 Z M214.424,115.216 C214.76,115.216 215.036,115.072 215.252,114.784 C215.468,114.496 215.576,114.16 215.576,113.776 C215.528,113.2 215.408,112.84 215.216,112.696 C215.024,112.552 214.736,112.48 214.352,112.48 L214.352,112.48 L213.92,112.48 C212.672,112.48 211.784,112.264 211.256,111.832 C210.728,111.4 210.416,110.896 210.32,110.32 C210.224,109.744 210.176,108.832 210.176,107.584 L210.176,107.584 L210.176,92.248 C210.176,89.032 209.216,86.44 207.296,84.472 C205.376,82.504 202.784,81.52 199.52,81.52 C196.832,81.52 194.636,82 192.932,82.96 C191.228,83.92 189.44,85.288 187.568,87.064 L187.568,87.064 L187.424,87.064 C186.608,85.336 185.36,83.98 183.68,82.996 C182,82.012 180.008,81.52 177.704,81.52 C175.832,81.52 174.164,81.808 172.7,82.384 C171.236,82.96 169.928,83.812 168.776,84.94 C167.84,85.8565 167.189188,86.4957344 166.823562,86.8577031 L166.616,87.064 L166.4,87.064 L166.4,82.528 C166.4,81.616 166.016,81.16 165.248,81.16 L165.248,81.16 L165.032,81.16 C164.744,81.208 164.192,81.352 163.376,81.592 C161.36,82.36 158.792,82.984 155.672,83.464 C155.288,83.512 155,83.668 154.808,83.932 C154.616,84.196 154.52,84.472 154.52,84.76 C154.52,85.384 154.664,85.78 154.952,85.948 C155.24,86.116 155.672,86.2 156.248,86.2 C157.496,86.2 158.384,86.416 158.912,86.848 C159.44,87.28 159.74,87.784 159.812,88.36 C159.884,88.936 159.92,89.848 159.92,91.096 L159.92,91.096 L159.92,107.584 C159.92,108.832 159.872,109.744 159.776,110.32 C159.68,110.896 159.368,111.4 158.84,111.832 C158.312,112.264 157.424,112.48 156.176,112.48 C155.552,112.48 155.132,112.54 154.916,112.66 C154.7,112.78 154.568,113.152 154.52,113.776 C154.52,114.16 154.628,114.496 154.844,114.784 C155.06,115.072 155.336,115.216 155.672,115.216 C158.504,115.072 161,115 163.16,115 C165.416,115 167.936,115.072 170.72,115.216 C171.104,115.216 171.392,115.072 171.584,114.784 C171.776,114.496 171.872,114.16 171.872,113.776 C171.824,113.2 171.704,112.84 171.512,112.696 C171.32,112.552 171.032,112.48 170.648,112.48 L170.648,112.48 L170.216,112.48 C168.968,112.48 168.08,112.264 167.552,111.832 C167.024,111.4 166.712,110.896 166.616,110.32 C166.52,109.744 166.472,108.832 166.472,107.584 L166.472,107.584 L166.472,90.448 C167.096,89.248 168.104,88.12 169.496,87.064 C170.888,86.008 172.688,85.48 174.896,85.48 C176.72,85.48 178.316,86.068 179.684,87.244 C181.052,88.42 181.736,90.112 181.736,92.32 L181.736,92.32 L181.73636,107.67868 C181.73852,107.98756 181.7504,108.52 181.772,109.276 C181.796,110.116 181.616,110.86 181.232,111.508 C180.848,112.156 179.864,112.48 178.28,112.48 C177.656,112.48 177.236,112.54 177.02,112.66 C176.804,112.78 176.672,113.152 176.624,113.776 C176.624,114.16 176.72,114.496 176.912,114.784 C177.104,115.072 177.392,115.216 177.776,115.216 C180.608,115.072 183.008,115 184.976,115 C187.04,115 189.488,115.072 192.32,115.216 C192.704,115.216 192.992,115.072 193.184,114.784 C193.376,114.496 193.472,114.16 193.472,113.776 C193.424,113.2 193.316,112.84 193.148,112.696 C192.98,112.552 192.68,112.48 192.248,112.48 L192.248,112.48 L191.816,112.48 C190.568,112.48 189.668,112.24 189.116,111.76 C188.564,111.28 188.3,110.536 188.324,109.528 C188.348,108.52 188.36,107.872 188.36,107.584 L188.36,107.584 L188.36,90.448 C188.936,89.248 189.92,88.12 191.312,87.064 C192.704,86.008 194.504,85.48 196.712,85.48 C198.536,85.48 200.144,86.068 201.536,87.244 C202.928,88.42 203.624,90.112 203.624,92.32 L203.624,92.32 L203.624,107.584 C203.624,108.832 203.576,109.744 203.48,110.32 C203.384,110.896 203.072,111.4 202.544,111.832 C202.016,112.264 201.128,112.48 199.88,112.48 C199.256,112.48 198.836,112.54 198.62,112.66 C198.404,112.78 198.272,113.152 198.224,113.776 C198.224,114.16 198.32,114.496 198.512,114.784 C198.704,115.072 198.992,115.216 199.376,115.216 C202.208,115.072 204.704,115 206.864,115 C209.12,115 211.64,115.072 214.424,115.216 Z M235.096,115.864 C237.976,115.864 240.556,115.204 242.836,113.884 C245.116,112.564 247,110.704 248.488,108.304 C248.584,108.16 248.632,107.944 248.632,107.656 C248.632,107.08 248.392,106.648 247.912,106.36 C247.672,106.168 247.384,106.072 247.048,106.072 C246.808,106.072 246.568,106.192 246.328,106.432 C245.032,108.544 243.664,110.044 242.224,110.932 C240.784,111.82 239.032,112.264 236.968,112.264 C233.08,112.264 230.212,110.956 228.364,108.34 C226.516,105.724 225.592,102.184 225.592,97.72 L225.592,97.72 L243.088,97.72 C244.72,97.72 245.968,97.432 246.832,96.856 C247.696,96.28 248.128,95.2 248.128,93.616 C247.792,89.92 246.472,86.98 244.168,84.796 C241.864,82.612 238.576,81.52 234.304,81.52 C231.136,81.52 228.328,82.336 225.88,83.968 C223.432,85.6 221.548,87.724 220.228,90.34 C218.908,92.956 218.248,95.68 218.248,98.512 C218.248,101.728 218.896,104.656 220.192,107.296 C221.488,109.936 223.396,112.024 225.916,113.56 C228.436,115.096 231.496,115.864 235.096,115.864 Z M237.328,94.984 L225.592,94.984 C225.784,91.576 226.672,88.9 228.256,86.956 C229.84,85.012 231.856,84.04 234.304,84.04 C236.512,84.04 238.216,84.808 239.416,86.344 C240.616,87.88 241.216,89.752 241.216,91.96 C241.072,93.976 239.776,94.984 237.328,94.984 L237.328,94.984 Z" id="lume" fill-rule="nonzero"></path>
            <path d="M96.899858,140.198153 C97.9481534,140.198153 98.8419744,140.035156 99.581321,139.709162 C100.320668,139.383168 100.886364,138.929332 101.278409,138.347656 C101.670455,137.76598 101.866477,137.091619 101.866477,136.324574 C101.866477,135.757812 101.759943,135.263494 101.546875,134.841619 C101.333807,134.419744 101.045099,134.059659 100.680753,133.761364 C100.316406,133.463068 99.9051847,133.215909 99.4470881,133.019886 C98.9889915,132.823864 98.5127841,132.668324 98.0184659,132.553267 L98.0184659,132.553267 L96.7911932,132.246449 C96.5227273,132.182528 96.256392,132.103693 95.9921875,132.009943 C95.727983,131.916193 95.4872159,131.800071 95.2698864,131.661577 C95.0525568,131.523082 94.8810369,131.353693 94.7553267,131.153409 C94.6296165,130.953125 94.5667614,130.716619 94.5667614,130.443892 C94.5710227,130.115767 94.6669034,129.823864 94.8544034,129.568182 C95.0419034,129.3125 95.3125,129.110085 95.6661932,128.960938 C96.0198864,128.81179 96.443892,128.737216 96.9382102,128.737216 C97.6413352,128.737216 98.2134233,128.892756 98.6544744,129.203835 C99.0955256,129.514915 99.3458807,129.949574 99.4055398,130.507812 L99.4055398,130.507812 L101.6875,130.507812 C101.674716,129.770597 101.46804,129.117543 101.067472,128.548651 C100.666903,127.979759 100.116122,127.534446 99.4151278,127.212713 C98.7141335,126.89098 97.8991477,126.730114 96.9701705,126.730114 C96.0539773,126.730114 95.2336648,126.89098 94.509233,127.212713 C93.7848011,127.534446 93.2127131,127.985085 92.7929688,128.564631 C92.3732244,129.144176 92.1633523,129.819602 92.1633523,130.590909 C92.1633523,131.528409 92.4754972,132.279474 93.0997869,132.844105 C93.7240767,133.408736 94.5752841,133.829545 95.6534091,134.106534 L95.6534091,134.106534 L97.1427557,134.490057 C97.6115057,134.609375 98.0216619,134.744673 98.3732244,134.895952 C98.7247869,135.04723 98.9985795,135.23473 99.1946023,135.458452 C99.390625,135.682173 99.490767,135.964489 99.4950284,136.305398 C99.490767,136.680398 99.3778409,137.007457 99.15625,137.286577 C98.9346591,137.565696 98.6289062,137.783026 98.2389915,137.938565 C97.8490767,138.094105 97.3963068,138.171875 96.8806818,138.171875 C96.3863636,138.171875 95.9399858,138.097301 95.5415483,137.948153 C95.1431108,137.799006 94.8203125,137.573153 94.5731534,137.270597 C94.3259943,136.96804 94.1853693,136.588778 94.1512784,136.132812 L94.1512784,136.132812 L91.8181818,136.132812 C91.8522727,137.002131 92.0791903,137.739347 92.4989347,138.34446 C92.918679,138.949574 93.5024858,139.409801 94.2503551,139.725142 C94.9982244,140.040483 95.881392,140.198153 96.899858,140.198153 Z M106.848896,140.135081 L107.09375,140.134233 C107.421875,140.12571 107.699929,140.095881 107.927912,140.044744 C108.155895,139.993608 108.331676,139.946733 108.455256,139.904119 L108.455256,139.904119 L108.065341,138.09517 C108.00142,138.112216 107.908736,138.131392 107.787287,138.152699 C107.665838,138.174006 107.53267,138.184659 107.387784,138.184659 C107.196023,138.184659 107.021307,138.15483 106.863636,138.09517 C106.705966,138.035511 106.57919,137.923651 106.48331,137.759588 C106.387429,137.595526 106.339489,137.357955 106.339489,137.046875 L106.339489,137.046875 L106.339,131.972 L108.276278,131.971591 L108.276278,130.181818 L106.339,130.182 L106.339489,127.829545 L104.025568,127.829545 L104.025,130.182 L102.632102,130.181818 L102.632102,131.971591 L104.025,131.972 L104.025568,137.430398 C104.021839,137.96733 104.12333,138.425959 104.330039,138.806286 L104.425071,138.964489 C104.695668,139.37358 105.06321,139.675071 105.527699,139.868963 C105.992187,140.062855 106.514205,140.151278 107.09375,140.134233 L106.848896,140.135081 Z M112.538352,140.198153 C113.049716,140.198153 113.496094,140.126776 113.877486,139.98402 C114.258878,139.841264 114.576349,139.651634 114.829901,139.415128 C115.083452,139.178622 115.28054,138.924006 115.421165,138.651278 L115.421165,138.651278 L115.497869,138.651278 L115.497869,140 L117.722301,140 L117.722301,133.428977 C117.722301,132.776989 117.604048,132.233665 117.367543,131.799006 C117.131037,131.364347 116.818892,131.020241 116.431108,130.76669 C116.043324,130.513139 115.615057,130.330966 115.146307,130.22017 C114.677557,130.109375 114.206676,130.053977 113.733665,130.053977 C113.047585,130.053977 112.421165,130.155185 111.854403,130.357599 C111.287642,130.560014 110.808239,130.862571 110.416193,131.26527 C110.024148,131.667969 109.742898,132.167614 109.572443,132.764205 L109.572443,132.764205 L111.732955,133.071023 C111.848011,132.734375 112.070668,132.442472 112.400923,132.195312 C112.731179,131.948153 113.179688,131.824574 113.746449,131.824574 C114.283381,131.824574 114.694602,131.956676 114.980114,132.220881 C115.265625,132.485085 115.408381,132.857955 115.408381,133.339489 L115.408381,133.339489 L115.408381,133.377841 C115.408381,133.599432 115.326349,133.762429 115.162287,133.866832 C114.998224,133.971236 114.737216,134.04794 114.379261,134.096946 C114.021307,134.145952 113.554688,134.200284 112.979403,134.259943 C112.502131,134.31108 112.040838,134.393111 111.595526,134.506037 C111.150213,134.618963 110.75071,134.784091 110.397017,135.00142 C110.043324,135.21875 109.764205,135.508523 109.559659,135.870739 C109.355114,136.232955 109.252841,136.691051 109.252841,137.245028 C109.252841,137.888494 109.396662,138.429688 109.684304,138.868608 C109.971946,139.307528 110.363991,139.638849 110.86044,139.862571 C111.356889,140.086293 111.916193,140.198153 112.538352,140.198153 Z M113.139205,138.497869 C112.65767,138.497869 112.261364,138.389205 111.950284,138.171875 C111.639205,137.954545 111.483665,137.632812 111.483665,137.206676 C111.483665,136.908381 111.5625,136.664418 111.72017,136.474787 C111.877841,136.285156 112.09304,136.137074 112.365767,136.03054 C112.638494,135.924006 112.947443,135.847301 113.292614,135.800426 C113.446023,135.779119 113.627131,135.753551 113.835938,135.723722 C114.044744,135.693892 114.255682,135.659801 114.46875,135.621449 C114.681818,135.583097 114.874645,135.538352 115.04723,135.487216 C115.219815,135.43608 115.34233,135.380682 115.414773,135.321023 L115.414773,135.321023 L115.414773,136.477983 C115.414773,136.840199 115.322088,137.174716 115.136719,137.481534 C114.951349,137.788352 114.68821,138.034446 114.347301,138.219815 C114.006392,138.405185 113.603693,138.497869 113.139205,138.497869 Z M123.030714,140.135081 L123.275568,140.134233 C123.603693,140.12571 123.881747,140.095881 124.10973,140.044744 C124.337713,139.993608 124.513494,139.946733 124.637074,139.904119 L124.637074,139.904119 L124.247159,138.09517 C124.183239,138.112216 124.090554,138.131392 123.969105,138.152699 C123.847656,138.174006 123.714489,138.184659 123.569602,138.184659 C123.377841,138.184659 123.203125,138.15483 123.045455,138.09517 C122.887784,138.035511 122.761009,137.923651 122.665128,137.759588 C122.569247,137.595526 122.521307,137.357955 122.521307,137.046875 L122.521307,137.046875 L122.521,131.972 L124.458097,131.971591 L124.458097,130.181818 L122.521,130.182 L122.521307,127.829545 L120.207386,127.829545 L120.207,130.182 L118.81392,130.181818 L118.81392,131.971591 L120.207,131.972 L120.207386,137.430398 C120.203658,137.96733 120.305148,138.425959 120.511857,138.806286 L120.606889,138.964489 C120.877486,139.37358 121.245028,139.675071 121.709517,139.868963 C122.174006,140.062855 122.696023,140.151278 123.275568,140.134233 L123.030714,140.135081 Z M127.058239,128.788352 C127.424716,128.788352 127.738991,128.665838 128.001065,128.42081 C128.263139,128.175781 128.394176,127.880682 128.394176,127.535511 C128.394176,127.18608 128.263139,126.888849 128.001065,126.643821 C127.738991,126.398793 127.424716,126.276278 127.058239,126.276278 C126.691761,126.276278 126.37642,126.398793 126.112216,126.643821 C125.848011,126.888849 125.715909,127.18608 125.715909,127.535511 C125.715909,127.880682 125.846946,128.175781 126.10902,128.42081 C126.371094,128.665838 126.6875,128.788352 127.058239,128.788352 Z M128.208807,140 L128.208807,130.181818 L125.894886,130.181818 L125.894886,140 L128.208807,140 Z M134.369318,140.191761 C135.191761,140.191761 135.90767,140.041548 136.517045,139.741122 C137.12642,139.440696 137.607955,139.023082 137.961648,138.488281 C138.315341,137.95348 138.519886,137.338778 138.575284,136.644176 L138.575284,136.644176 L136.363636,136.644176 C136.295455,136.997869 136.169744,137.298295 135.986506,137.545455 C135.803267,137.792614 135.576349,137.981179 135.305753,138.111151 C135.035156,138.241122 134.729403,138.306108 134.388494,138.306108 C133.90696,138.306108 133.488281,138.177202 133.132457,137.919389 C132.776634,137.661577 132.50071,137.292969 132.304688,136.813565 C132.108665,136.334162 132.010653,135.759943 132.010653,135.090909 C132.010653,134.430398 132.10973,133.863636 132.307884,133.390625 C132.506037,132.917614 132.784091,132.554332 133.142045,132.300781 C133.5,132.04723 133.915483,131.920455 134.388494,131.920455 C134.946733,131.920455 135.393111,132.07919 135.727628,132.396662 C136.062145,132.714134 136.274148,133.109375 136.363636,133.582386 L136.363636,133.582386 L138.575284,133.582386 C138.524148,132.875 138.315341,132.256037 137.948864,131.725497 C137.582386,131.194957 137.091264,130.783736 136.475497,130.491832 C135.85973,130.199929 135.153409,130.053977 134.356534,130.053977 C133.397727,130.053977 132.567827,130.268111 131.866832,130.696378 C131.165838,131.124645 130.62358,131.721236 130.240057,132.486151 C129.856534,133.251065 129.664773,134.132102 129.664773,135.129261 C129.664773,136.122159 129.853338,136.998935 130.230469,137.759588 C130.607599,138.520241 131.146662,139.115767 131.847656,139.546165 C132.548651,139.976562 133.389205,140.191761 134.369318,140.191761 Z M147.725852,140.191761 C148.544034,140.191761 149.268466,140.059659 149.899148,139.795455 C150.52983,139.53125 151.023082,139.163707 151.378906,138.692827 C151.73473,138.221946 151.914773,137.677557 151.919034,137.059659 C151.914773,136.356534 151.685724,135.787642 151.231889,135.352983 C150.778054,134.918324 150.086648,134.600852 149.15767,134.400568 L149.15767,134.400568 L147.482955,134.042614 C146.984375,133.927557 146.627486,133.78054 146.412287,133.601562 C146.197088,133.422585 146.091619,133.190341 146.095881,132.90483 C146.091619,132.572443 146.252486,132.301847 146.57848,132.09304 C146.904474,131.884233 147.308239,131.77983 147.789773,131.77983 C148.147727,131.77983 148.450284,131.837358 148.697443,131.952415 C148.944602,132.067472 149.14169,132.21875 149.288707,132.40625 C149.435724,132.59375 149.539062,132.794034 149.598722,133.007102 L149.598722,133.007102 L151.708097,132.776989 C151.550426,131.941761 151.14027,131.279119 150.477628,130.789062 C149.814986,130.299006 148.908381,130.053977 147.757812,130.053977 C146.973722,130.053977 146.282315,130.176491 145.683594,130.42152 C145.084872,130.666548 144.618253,131.011719 144.283736,131.457031 C143.949219,131.902344 143.784091,132.427557 143.788352,133.03267 C143.784091,133.74858 144.007813,134.339844 144.459517,134.806463 C144.911222,135.273082 145.607955,135.604403 146.549716,135.800426 L146.549716,135.800426 L148.224432,136.151989 C148.676136,136.25 149.009588,136.390625 149.224787,136.573864 C149.439986,136.757102 149.547585,136.989347 149.547585,137.270597 C149.547585,137.602983 149.380327,137.882102 149.04581,138.107955 C148.711293,138.333807 148.269176,138.446733 147.71946,138.446733 C147.18679,138.446733 146.754261,138.333807 146.421875,138.107955 C146.089489,137.882102 145.872159,137.547585 145.769886,137.104403 L145.769886,137.104403 L143.513494,137.321733 C143.654119,138.225142 144.090909,138.929332 144.823864,139.434304 C145.556818,139.939276 146.524148,140.191761 147.725852,140.191761 Z M154.493608,128.788352 C154.860085,128.788352 155.174361,128.665838 155.436435,128.42081 C155.698509,128.175781 155.829545,127.880682 155.829545,127.535511 C155.829545,127.18608 155.698509,126.888849 155.436435,126.643821 C155.174361,126.398793 154.860085,126.276278 154.493608,126.276278 C154.127131,126.276278 153.81179,126.398793 153.547585,126.643821 C153.283381,126.888849 153.151278,127.18608 153.151278,127.535511 C153.151278,127.880682 153.282315,128.175781 153.544389,128.42081 C153.806463,128.665838 154.122869,128.788352 154.493608,128.788352 Z M155.644176,140 L155.644176,130.181818 L153.330256,130.181818 L153.330256,140 L155.644176,140 Z M160.997333,140.135081 L161.242188,140.134233 C161.570312,140.12571 161.848366,140.095881 162.076349,140.044744 C162.304332,139.993608 162.480114,139.946733 162.603693,139.904119 L162.603693,139.904119 L162.213778,138.09517 C162.149858,138.112216 162.057173,138.131392 161.935724,138.152699 C161.814276,138.174006 161.681108,138.184659 161.536222,138.184659 C161.34446,138.184659 161.169744,138.15483 161.012074,138.09517 C160.854403,138.035511 160.727628,137.923651 160.631747,137.759588 C160.535866,137.595526 160.487926,137.357955 160.487926,137.046875 L160.487926,137.046875 L160.487,131.972 L162.424716,131.971591 L162.424716,130.181818 L160.487,130.182 L160.487926,127.829545 L158.174006,127.829545 L158.174,130.182 L156.78054,130.181818 L156.78054,131.971591 L158.174,131.972 L158.174006,137.430398 C158.170277,137.96733 158.271767,138.425959 158.478477,138.806286 L158.573509,138.964489 C158.844105,139.37358 159.211648,139.675071 159.676136,139.868963 C160.140625,140.062855 160.662642,140.151278 161.242188,140.134233 L160.997333,140.135081 Z M168.105824,140.191761 C168.868608,140.191761 169.546165,140.075639 170.138494,139.843395 C170.730824,139.611151 171.217685,139.283026 171.599077,138.85902 C171.980469,138.435014 172.239347,137.9375 172.37571,137.366477 L172.37571,137.366477 L170.215199,137.12358 C170.112926,137.400568 169.961648,137.632812 169.761364,137.820312 C169.56108,138.007812 169.324574,138.149503 169.051847,138.245384 C168.779119,138.341264 168.474432,138.389205 168.137784,138.389205 C167.634943,138.389205 167.196023,138.281605 166.821023,138.066406 C166.446023,137.851207 166.154119,137.540128 165.945312,137.133168 C165.736506,136.726207 165.632102,136.237216 165.632102,135.666193 L165.633,135.724 L172.471591,135.723722 L172.471591,135.014205 C172.471591,134.153409 172.352273,133.410866 172.113636,132.786577 C171.875,132.162287 171.54794,131.647727 171.132457,131.242898 C170.716974,130.838068 170.239702,130.538707 169.700639,130.344815 C169.161577,130.150923 168.589489,130.053977 167.984375,130.053977 C167.046875,130.053977 166.230824,130.268111 165.536222,130.696378 C164.841619,131.124645 164.301491,131.721236 163.915838,132.486151 C163.530185,133.251065 163.337358,134.138494 163.337358,135.148438 C163.337358,136.175426 163.529119,137.067116 163.912642,137.823509 C164.296165,138.579901 164.844815,139.163707 165.558594,139.574929 C166.272372,139.986151 167.121449,140.191761 168.105824,140.191761 Z M165.642312,134.088157 C165.672792,133.732156 165.770597,133.400568 165.935724,133.093395 C166.133878,132.724787 166.411932,132.426491 166.769886,132.198509 C167.127841,131.970526 167.543324,131.856534 168.016335,131.856534 C168.459517,131.856534 168.848366,131.956676 169.182884,132.15696 C169.517401,132.357244 169.778409,132.631037 169.965909,132.978338 C170.153409,133.325639 170.24929,133.720881 170.253551,134.164062 L170.253551,134.164062 L165.638,134.165 L165.642312,134.088157 Z M182.165483,143.848011 C183.047585,143.848011 183.835938,143.712713 184.53054,143.442116 C185.225142,143.17152 185.772727,142.762429 186.173295,142.214844 C186.573864,141.667259 186.774148,140.982244 186.774148,140.159801 L186.774148,140.159801 L186.774148,130.181818 L184.492188,130.181818 L184.492188,131.805398 L184.364347,131.805398 C184.24929,131.566761 184.080966,131.312145 183.859375,131.041548 C183.637784,130.770952 183.340554,130.538707 182.967685,130.344815 C182.594815,130.150923 182.120739,130.053977 181.545455,130.053977 C180.791193,130.053977 180.107244,130.246804 179.493608,130.632457 C178.879972,131.018111 178.393111,131.582741 178.033026,132.326349 C177.67294,133.069957 177.492898,133.980824 177.492898,135.058949 C177.492898,136.128551 177.67294,137.018111 178.033026,137.727628 C178.393111,138.437145 178.878906,138.969815 179.490412,139.325639 C180.101918,139.681463 180.784801,139.859375 181.539062,139.859375 C182.101562,139.859375 182.569247,139.774148 182.942116,139.603693 C183.314986,139.433239 183.615412,139.222301 183.843395,138.970881 C184.071378,138.71946 184.245028,138.474432 184.364347,138.235795 L184.364347,138.235795 L184.479403,138.235795 L184.479403,140.095881 C184.479403,140.799006 184.264205,141.308239 183.833807,141.62358 C183.403409,141.93892 182.860085,142.096591 182.203835,142.096591 C181.739347,142.096591 181.354759,142.033736 181.050071,141.908026 C180.745384,141.782315 180.503551,141.626776 180.324574,141.441406 C180.145597,141.256037 180.009233,141.075994 179.915483,140.901278 L179.915483,140.901278 L177.831676,141.40625 C177.972301,141.849432 178.223722,142.256392 178.585938,142.627131 C178.948153,142.997869 179.427557,143.294034 180.024148,143.515625 C180.620739,143.737216 181.334517,143.848011 182.165483,143.848011 Z M182.184659,138.044034 C181.677557,138.044034 181.250355,137.919389 180.903054,137.670099 C180.555753,137.42081 180.293679,137.071378 180.116832,136.621804 C179.939986,136.17223 179.851562,135.647017 179.851562,135.046165 C179.851562,134.453835 179.93892,133.924361 180.113636,133.457741 C180.288352,132.991122 180.548295,132.62358 180.893466,132.355114 C181.238636,132.086648 181.669034,131.952415 182.184659,131.952415 C182.683239,131.952415 183.104048,132.081321 183.447088,132.339134 C183.790128,132.596946 184.050071,132.958097 184.226918,133.422585 C184.403764,133.887074 184.492188,134.428267 184.492188,135.046165 C184.492188,135.672585 184.402699,136.209517 184.223722,136.65696 C184.044744,137.104403 183.78267,137.447443 183.4375,137.68608 C183.09233,137.924716 182.674716,138.044034 182.184659,138.044034 Z M192.99858,140.191761 C193.761364,140.191761 194.43892,140.075639 195.03125,139.843395 C195.62358,139.611151 196.11044,139.283026 196.491832,138.85902 C196.873224,138.435014 197.132102,137.9375 197.268466,137.366477 L197.268466,137.366477 L195.107955,137.12358 C195.005682,137.400568 194.854403,137.632812 194.654119,137.820312 C194.453835,138.007812 194.21733,138.149503 193.944602,138.245384 C193.671875,138.341264 193.367188,138.389205 193.03054,138.389205 C192.527699,138.389205 192.088778,138.281605 191.713778,138.066406 C191.338778,137.851207 191.046875,137.540128 190.838068,137.133168 C190.629261,136.726207 190.524858,136.237216 190.524858,135.666193 L190.526,135.724 L197.364347,135.723722 L197.364347,135.014205 C197.364347,134.153409 197.245028,133.410866 197.006392,132.786577 C196.767756,132.162287 196.440696,131.647727 196.025213,131.242898 C195.60973,130.838068 195.132457,130.538707 194.593395,130.344815 C194.054332,130.150923 193.482244,130.053977 192.877131,130.053977 C191.939631,130.053977 191.12358,130.268111 190.428977,130.696378 C189.734375,131.124645 189.194247,131.721236 188.808594,132.486151 C188.42294,133.251065 188.230114,134.138494 188.230114,135.148438 C188.230114,136.175426 188.421875,137.067116 188.805398,137.823509 C189.18892,138.579901 189.737571,139.163707 190.451349,139.574929 C191.165128,139.986151 192.014205,140.191761 192.99858,140.191761 Z M190.535067,134.088157 C190.565548,133.732156 190.663352,133.400568 190.82848,133.093395 C191.026634,132.724787 191.304688,132.426491 191.662642,132.198509 C192.020597,131.970526 192.43608,131.856534 192.909091,131.856534 C193.352273,131.856534 193.741122,131.956676 194.075639,132.15696 C194.410156,132.357244 194.671165,132.631037 194.858665,132.978338 C195.046165,133.325639 195.142045,133.720881 195.146307,134.164062 L195.146307,134.164062 L190.531,134.165 L190.535067,134.088157 Z M201.134233,140 L201.134233,134.247159 C201.134233,133.774148 201.222656,133.371449 201.399503,133.039062 C201.576349,132.706676 201.821378,132.45206 202.134588,132.275213 C202.447798,132.098366 202.806818,132.009943 203.211648,132.009943 C203.808239,132.009943 204.275923,132.195312 204.614702,132.566051 C204.95348,132.93679 205.122869,133.450284 205.122869,134.106534 L205.122869,134.106534 L205.122869,140 L207.43679,140 L207.43679,133.74858 C207.441051,132.964489 207.303622,132.297585 207.024503,131.747869 C206.745384,131.198153 206.353338,130.778409 205.848366,130.488636 C205.343395,130.198864 204.752131,130.053977 204.074574,130.053977 C203.341619,130.053977 202.726918,130.215909 202.230469,130.539773 C201.73402,130.863636 201.372869,131.300426 201.147017,131.850142 L201.147017,131.850142 L201.03196,131.850142 L201.03196,130.181818 L198.820313,130.181818 L198.820313,140 L201.134233,140 Z M213.642045,140.191761 C214.40483,140.191761 215.082386,140.075639 215.674716,139.843395 C216.267045,139.611151 216.753906,139.283026 217.135298,138.85902 C217.51669,138.435014 217.775568,137.9375 217.911932,137.366477 L217.911932,137.366477 L215.75142,137.12358 C215.649148,137.400568 215.497869,137.632812 215.297585,137.820312 C215.097301,138.007812 214.860795,138.149503 214.588068,138.245384 C214.315341,138.341264 214.010653,138.389205 213.674006,138.389205 C213.171165,138.389205 212.732244,138.281605 212.357244,138.066406 C211.982244,137.851207 211.690341,137.540128 211.481534,137.133168 C211.272727,136.726207 211.168324,136.237216 211.168324,135.666193 L211.169,135.724 L218.007812,135.723722 L218.007812,135.014205 C218.007812,134.153409 217.888494,133.410866 217.649858,132.786577 C217.411222,132.162287 217.084162,131.647727 216.668679,131.242898 C216.253196,130.838068 215.775923,130.538707 215.236861,130.344815 C214.697798,130.150923 214.12571,130.053977 213.520597,130.053977 C212.583097,130.053977 211.767045,130.268111 211.072443,130.696378 C210.377841,131.124645 209.837713,131.721236 209.45206,132.486151 C209.066406,133.251065 208.87358,134.138494 208.87358,135.148438 C208.87358,136.175426 209.065341,137.067116 209.448864,137.823509 C209.832386,138.579901 210.381037,139.163707 211.094815,139.574929 C211.808594,139.986151 212.65767,140.191761 213.642045,140.191761 Z M211.178533,134.088157 C211.209014,133.732156 211.306818,133.400568 211.471946,133.093395 C211.670099,132.724787 211.948153,132.426491 212.306108,132.198509 C212.664063,131.970526 213.079545,131.856534 213.552557,131.856534 C213.995739,131.856534 214.384588,131.956676 214.719105,132.15696 C215.053622,132.357244 215.314631,132.631037 215.502131,132.978338 C215.689631,133.325639 215.785511,133.720881 215.789773,134.164062 L215.789773,134.164062 L211.174,134.165 L211.178533,134.088157 Z M221.777699,140 L221.777699,134.227983 C221.777699,133.810369 221.87358,133.441761 222.065341,133.122159 C222.257102,132.802557 222.520241,132.552202 222.854759,132.371094 C223.189276,132.189986 223.567472,132.099432 223.989347,132.099432 C224.185369,132.099432 224.388849,132.113281 224.599787,132.14098 C224.810724,132.168679 224.965199,132.199574 225.06321,132.233665 L225.06321,132.233665 L225.06321,130.105114 C224.956676,130.083807 224.823509,130.067827 224.663707,130.057173 C224.503906,130.04652 224.360085,130.041193 224.232244,130.041193 C223.669744,130.041193 223.170099,130.195668 222.73331,130.504616 C222.29652,130.813565 221.988636,131.25142 221.809659,131.818182 L221.809659,131.818182 L221.707386,131.818182 L221.707386,130.181818 L219.463778,130.181818 L219.463778,140 L221.777699,140 Z M228.743608,140.198153 C229.254972,140.198153 229.701349,140.126776 230.082741,139.98402 C230.464134,139.841264 230.781605,139.651634 231.035156,139.415128 C231.288707,139.178622 231.485795,138.924006 231.62642,138.651278 L231.62642,138.651278 L231.703125,138.651278 L231.703125,140 L233.927557,140 L233.927557,133.428977 C233.927557,132.776989 233.809304,132.233665 233.572798,131.799006 C233.336293,131.364347 233.024148,131.020241 232.636364,130.76669 C232.24858,130.513139 231.820312,130.330966 231.351562,130.22017 C230.882812,130.109375 230.411932,130.053977 229.93892,130.053977 C229.252841,130.053977 228.62642,130.155185 228.059659,130.357599 C227.492898,130.560014 227.013494,130.862571 226.621449,131.26527 C226.229403,131.667969 225.948153,132.167614 225.777699,132.764205 L225.777699,132.764205 L227.93821,133.071023 C228.053267,132.734375 228.275923,132.442472 228.606179,132.195312 C228.936435,131.948153 229.384943,131.824574 229.951705,131.824574 C230.488636,131.824574 230.899858,131.956676 231.185369,132.220881 C231.470881,132.485085 231.613636,132.857955 231.613636,133.339489 L231.613636,133.339489 L231.613636,133.377841 C231.613636,133.599432 231.531605,133.762429 231.367543,133.866832 C231.20348,133.971236 230.942472,134.04794 230.584517,134.096946 C230.226563,134.145952 229.759943,134.200284 229.184659,134.259943 C228.707386,134.31108 228.246094,134.393111 227.800781,134.506037 C227.355469,134.618963 226.955966,134.784091 226.602273,135.00142 C226.24858,135.21875 225.96946,135.508523 225.764915,135.870739 C225.560369,136.232955 225.458097,136.691051 225.458097,137.245028 C225.458097,137.888494 225.601918,138.429688 225.88956,138.868608 C226.177202,139.307528 226.569247,139.638849 227.065696,139.862571 C227.562145,140.086293 228.121449,140.198153 228.743608,140.198153 Z M229.34446,138.497869 C228.862926,138.497869 228.466619,138.389205 228.15554,138.171875 C227.84446,137.954545 227.68892,137.632812 227.68892,137.206676 C227.68892,136.908381 227.767756,136.664418 227.925426,136.474787 C228.083097,136.285156 228.298295,136.137074 228.571023,136.03054 C228.84375,135.924006 229.152699,135.847301 229.497869,135.800426 C229.651278,135.779119 229.832386,135.753551 230.041193,135.723722 C230.25,135.693892 230.460938,135.659801 230.674006,135.621449 C230.887074,135.583097 231.079901,135.538352 231.252486,135.487216 C231.425071,135.43608 231.547585,135.380682 231.620028,135.321023 L231.620028,135.321023 L231.620028,136.477983 C231.620028,136.840199 231.527344,137.174716 231.341974,137.481534 C231.156605,137.788352 230.893466,138.034446 230.552557,138.219815 C230.211648,138.405185 229.808949,138.497869 229.34446,138.497869 Z M239.235969,140.135081 L239.480824,140.134233 C239.808949,140.12571 240.087003,140.095881 240.314986,140.044744 C240.542969,139.993608 240.71875,139.946733 240.84233,139.904119 L240.84233,139.904119 L240.452415,138.09517 C240.388494,138.112216 240.29581,138.131392 240.174361,138.152699 C240.052912,138.174006 239.919744,138.184659 239.774858,138.184659 C239.583097,138.184659 239.408381,138.15483 239.25071,138.09517 C239.09304,138.035511 238.966264,137.923651 238.870384,137.759588 C238.774503,137.595526 238.726562,137.357955 238.726562,137.046875 L238.726562,137.046875 L238.726,131.972 L240.663352,131.971591 L240.663352,130.181818 L238.726,130.182 L238.726562,127.829545 L236.412642,127.829545 L236.412,130.182 L235.019176,130.181818 L235.019176,131.971591 L236.412,131.972 L236.412642,137.430398 C236.408913,137.96733 236.510404,138.425959 236.717113,138.806286 L236.812145,138.964489 C237.082741,139.37358 237.450284,139.675071 237.914773,139.868963 C238.379261,140.062855 238.901278,140.151278 239.480824,140.134233 L239.235969,140.135081 Z M246.28054,140.191761 C247.239347,140.191761 248.070313,139.980824 248.773438,139.558949 C249.476563,139.137074 250.020952,138.546875 250.406605,137.788352 C250.792259,137.02983 250.985085,136.143466 250.985085,135.129261 C250.985085,134.115057 250.792259,133.226562 250.406605,132.463778 C250.020952,131.700994 249.476563,131.108665 248.773438,130.68679 C248.070313,130.264915 247.239347,130.053977 246.28054,130.053977 C245.321733,130.053977 244.490767,130.264915 243.787642,130.68679 C243.084517,131.108665 242.540128,131.700994 242.154474,132.463778 C241.768821,133.226562 241.575994,134.115057 241.575994,135.129261 C241.575994,136.143466 241.768821,137.02983 242.154474,137.788352 C242.540128,138.546875 243.084517,139.137074 243.787642,139.558949 C244.490767,139.980824 245.321733,140.191761 246.28054,140.191761 Z M246.293324,138.338068 C245.760653,138.338068 245.318537,138.194247 244.966974,137.906605 C244.615412,137.618963 244.353338,137.232244 244.180753,136.746449 C244.008168,136.260653 243.921875,135.71946 243.921875,135.122869 C243.921875,134.522017 244.008168,133.977628 244.180753,133.489702 C244.353338,133.001776 244.615412,132.612926 244.966974,132.323153 C245.318537,132.033381 245.760653,131.888494 246.293324,131.888494 C246.81321,131.888494 247.247869,132.033381 247.597301,132.323153 C247.946733,132.612926 248.207741,133.001776 248.380327,133.489702 C248.552912,133.977628 248.639205,134.522017 248.639205,135.122869 C248.639205,135.71946 248.552912,136.260653 248.380327,136.746449 C248.207741,137.232244 247.946733,137.618963 247.597301,137.906605 C247.247869,138.194247 246.81321,138.338068 246.293324,138.338068 Z M254.754972,140 L254.754972,134.227983 C254.754972,133.810369 254.850852,133.441761 255.042614,133.122159 C255.234375,132.802557 255.497514,132.552202 255.832031,132.371094 C256.166548,132.189986 256.544744,132.099432 256.966619,132.099432 C257.162642,132.099432 257.366122,132.113281 257.57706,132.14098 C257.787997,132.168679 257.942472,132.199574 258.040483,132.233665 L258.040483,132.233665 L258.040483,130.105114 C257.933949,130.083807 257.800781,130.067827 257.64098,130.057173 C257.481179,130.04652 257.337358,130.041193 257.209517,130.041193 C256.647017,130.041193 256.147372,130.195668 255.710582,130.504616 C255.273793,130.813565 254.965909,131.25142 254.786932,131.818182 L254.786932,131.818182 L254.684659,131.818182 L254.684659,130.181818 L252.441051,130.181818 L252.441051,140 L254.754972,140 Z M95.1292614,158 L95.129,149.972 L97.1619318,149.971591 L97.1619318,148.181818 L95.129,148.182 L95.1292614,147.408381 C95.1292614,147.079647 95.1942254,146.815877 95.3241535,146.617072 L95.3945312,146.523082 C95.5713778,146.316406 95.875,146.213068 96.3053977,146.213068 C96.4886364,146.213068 96.6548295,146.229048 96.8039773,146.261009 C96.953125,146.292969 97.0767045,146.323864 97.1747159,146.353693 L97.1747159,146.353693 L97.6349432,144.56392 C97.4857955,144.512784 97.2556818,144.455256 96.9446023,144.391335 C96.6335227,144.327415 96.2776989,144.295455 95.8771307,144.295455 C95.3103693,144.295455 94.7947443,144.404119 94.3302557,144.621449 C93.865767,144.838778 93.4960938,145.166903 93.2212358,145.605824 C92.9463778,146.044744 92.8089489,146.59446 92.8089489,147.254972 L92.8089489,147.254972 L92.808,148.182 L91.3579545,148.181818 L91.3579545,149.971591 L92.808,149.972 L92.8089489,158 L95.1292614,158 Z M102.389205,158.191761 C103.348011,158.191761 104.178977,157.980824 104.882102,157.558949 C105.585227,157.137074 106.129616,156.546875 106.51527,155.788352 C106.900923,155.02983 107.09375,154.143466 107.09375,153.129261 C107.09375,152.115057 106.900923,151.226562 106.51527,150.463778 C106.129616,149.700994 105.585227,149.108665 104.882102,148.68679 C104.178977,148.264915 103.348011,148.053977 102.389205,148.053977 C101.430398,148.053977 100.599432,148.264915 99.8963068,148.68679 C99.1931818,149.108665 98.6487926,149.700994 98.2631392,150.463778 C97.8774858,151.226562 97.6846591,152.115057 97.6846591,153.129261 C97.6846591,154.143466 97.8774858,155.02983 98.2631392,155.788352 C98.6487926,156.546875 99.1931818,157.137074 99.8963068,157.558949 C100.599432,157.980824 101.430398,158.191761 102.389205,158.191761 Z M102.401989,156.338068 C101.869318,156.338068 101.427202,156.194247 101.075639,155.906605 C100.724077,155.618963 100.462003,155.232244 100.289418,154.746449 C100.116832,154.260653 100.03054,153.71946 100.03054,153.122869 C100.03054,152.522017 100.116832,151.977628 100.289418,151.489702 C100.462003,151.001776 100.724077,150.612926 101.075639,150.323153 C101.427202,150.033381 101.869318,149.888494 102.401989,149.888494 C102.921875,149.888494 103.356534,150.033381 103.705966,150.323153 C104.055398,150.612926 104.316406,151.001776 104.488991,151.489702 C104.661577,151.977628 104.747869,152.522017 104.747869,153.122869 C104.747869,153.71946 104.661577,154.260653 104.488991,154.746449 C104.316406,155.232244 104.055398,155.618963 103.705966,155.906605 C103.356534,156.194247 102.921875,156.338068 102.401989,156.338068 Z M110.863636,158 L110.863636,152.227983 C110.863636,151.810369 110.959517,151.441761 111.151278,151.122159 C111.34304,150.802557 111.606179,150.552202 111.940696,150.371094 C112.275213,150.189986 112.653409,150.099432 113.075284,150.099432 C113.271307,150.099432 113.474787,150.113281 113.685724,150.14098 C113.896662,150.168679 114.051136,150.199574 114.149148,150.233665 L114.149148,150.233665 L114.149148,148.105114 C114.042614,148.083807 113.909446,148.067827 113.749645,148.057173 C113.589844,148.04652 113.446023,148.041193 113.318182,148.041193 C112.755682,148.041193 112.256037,148.195668 111.819247,148.504616 C111.382457,148.813565 111.074574,149.25142 110.895597,149.818182 L110.895597,149.818182 L110.793324,149.818182 L110.793324,148.181818 L108.549716,148.181818 L108.549716,158 L110.863636,158 Z M123.696023,158 C125.025568,158 126.164418,157.737926 127.112571,157.213778 C128.060724,156.689631 128.787287,155.9375 129.292259,154.957386 C129.79723,153.977273 130.049716,152.805398 130.049716,151.441761 C130.049716,150.082386 129.798295,148.914773 129.295455,147.93892 C128.792614,146.963068 128.073509,146.214134 127.138139,145.692116 C126.20277,145.170099 125.085227,144.909091 123.785511,144.909091 L123.785511,144.909091 L119.259943,144.909091 L119.259943,158 L123.696023,158 Z M123.580966,155.948153 L121.631392,155.948153 L121.631392,146.960938 L123.651278,146.960938 C124.537642,146.960938 125.280185,147.126065 125.878906,147.456321 C126.477628,147.786577 126.930398,148.283026 127.237216,148.945668 C127.544034,149.60831 127.697443,150.440341 127.697443,151.441761 C127.697443,152.443182 127.544034,153.277344 127.237216,153.944247 C126.930398,154.611151 126.472301,155.111861 125.862926,155.446378 C125.253551,155.780895 124.492898,155.948153 123.580966,155.948153 L123.580966,155.948153 Z M136.044034,158.191761 C136.806818,158.191761 137.484375,158.075639 138.076705,157.843395 C138.669034,157.611151 139.155895,157.283026 139.537287,156.85902 C139.918679,156.435014 140.177557,155.9375 140.31392,155.366477 L140.31392,155.366477 L138.153409,155.12358 C138.051136,155.400568 137.899858,155.632812 137.699574,155.820312 C137.49929,156.007812 137.262784,156.149503 136.990057,156.245384 C136.71733,156.341264 136.412642,156.389205 136.075994,156.389205 C135.573153,156.389205 135.134233,156.281605 134.759233,156.066406 C134.384233,155.851207 134.09233,155.540128 133.883523,155.133168 C133.674716,154.726207 133.570312,154.237216 133.570312,153.666193 L133.571,153.724 L140.409801,153.723722 L140.409801,153.014205 C140.409801,152.153409 140.290483,151.410866 140.051847,150.786577 C139.81321,150.162287 139.486151,149.647727 139.070668,149.242898 C138.655185,148.838068 138.177912,148.538707 137.638849,148.344815 C137.099787,148.150923 136.527699,148.053977 135.922585,148.053977 C134.985085,148.053977 134.169034,148.268111 133.474432,148.696378 C132.77983,149.124645 132.239702,149.721236 131.854048,150.486151 C131.468395,151.251065 131.275568,152.138494 131.275568,153.148438 C131.275568,154.175426 131.46733,155.067116 131.850852,155.823509 C132.234375,156.579901 132.783026,157.163707 133.496804,157.574929 C134.210582,157.986151 135.059659,158.191761 136.044034,158.191761 Z M133.580522,152.088157 C133.611003,151.732156 133.708807,151.400568 133.873935,151.093395 C134.072088,150.724787 134.350142,150.426491 134.708097,150.198509 C135.066051,149.970526 135.481534,149.856534 135.954545,149.856534 C136.397727,149.856534 136.786577,149.956676 137.121094,150.15696 C137.455611,150.357244 137.716619,150.631037 137.904119,150.978338 C138.091619,151.325639 138.1875,151.720881 138.191761,152.164062 L138.191761,152.164062 L133.576,152.165 L133.580522,152.088157 Z M144.179688,158 L144.179688,152.247159 C144.179688,151.774148 144.268111,151.371449 144.444957,151.039062 C144.621804,150.706676 144.866832,150.45206 145.180043,150.275213 C145.493253,150.098366 145.852273,150.009943 146.257102,150.009943 C146.853693,150.009943 147.321378,150.195312 147.660156,150.566051 C147.998935,150.93679 148.168324,151.450284 148.168324,152.106534 L148.168324,152.106534 L148.168324,158 L150.482244,158 L150.482244,151.74858 C150.486506,150.964489 150.349077,150.297585 150.069957,149.747869 C149.790838,149.198153 149.398793,148.778409 148.893821,148.488636 C148.388849,148.198864 147.797585,148.053977 147.120028,148.053977 C146.387074,148.053977 145.772372,148.215909 145.275923,148.539773 C144.779474,148.863636 144.418324,149.300426 144.192472,149.850142 L144.192472,149.850142 L144.077415,149.850142 L144.077415,148.181818 L141.865767,148.181818 L141.865767,158 L144.179688,158 Z M156.62358,158.191761 C157.582386,158.191761 158.413352,157.980824 159.116477,157.558949 C159.819602,157.137074 160.363991,156.546875 160.749645,155.788352 C161.135298,155.02983 161.328125,154.143466 161.328125,153.129261 C161.328125,152.115057 161.135298,151.226562 160.749645,150.463778 C160.363991,149.700994 159.819602,149.108665 159.116477,148.68679 C158.413352,148.264915 157.582386,148.053977 156.62358,148.053977 C155.664773,148.053977 154.833807,148.264915 154.130682,148.68679 C153.427557,149.108665 152.883168,149.700994 152.497514,150.463778 C152.111861,151.226562 151.919034,152.115057 151.919034,153.129261 C151.919034,154.143466 152.111861,155.02983 152.497514,155.788352 C152.883168,156.546875 153.427557,157.137074 154.130682,157.558949 C154.833807,157.980824 155.664773,158.191761 156.62358,158.191761 Z M156.636364,156.338068 C156.103693,156.338068 155.661577,156.194247 155.310014,155.906605 C154.958452,155.618963 154.696378,155.232244 154.523793,154.746449 C154.351207,154.260653 154.264915,153.71946 154.264915,153.122869 C154.264915,152.522017 154.351207,151.977628 154.523793,151.489702 C154.696378,151.001776 154.958452,150.612926 155.310014,150.323153 C155.661577,150.033381 156.103693,149.888494 156.636364,149.888494 C157.15625,149.888494 157.590909,150.033381 157.940341,150.323153 C158.289773,150.612926 158.550781,151.001776 158.723366,151.489702 C158.895952,151.977628 158.982244,152.522017 158.982244,153.122869 C158.982244,153.71946 158.895952,154.260653 158.723366,154.746449 C158.550781,155.232244 158.289773,155.618963 157.940341,155.906605 C157.590909,156.194247 157.15625,156.338068 156.636364,156.338068 Z" id="StaticsitegeneratorforDeno" fill-rule="nonzero"></path>
        </g>
    </g>
</svg>