<svg width="270" height="160" xmlns="http://www.w3.org/2000/svg"><g fill="#000" fill-rule="evenodd"><path d="M26.59 12.784c-1.403 5.7 1.663 8.719 5.39 11.749l.512.414.437.35.44.352c.66.53 1.328 1.07 1.98 1.635l.434.38c3.518 3.134 6.5 7.07 5.784 14.037 4.404-4.29 1.03-14.378 9.565-22.158-4.045 17.868 17.949 15.735 10.42 45.493 3.036-1.86 5.22-4.924 6.55-9.19 2.684 4.266 1.681 11.848-3.007 22.747 2.95-1.315 5.097-3.496 6.439-6.543 1.05 4.302 1.574 8.1 1.574 11.396 0 11.96-5.743 22.577-14.622 29.246a595.417 595.417 0 0 0-1.068-17.394c-.782-10.176-2.56-15.6-6.154-20.772-3.593-5.172-7.6-6.834-13.23-7.613-5.631-.78-11.202.441-17.362 3.648-6.16 3.206-10.174 9.724-8.403 13.452 1.77 3.727 7.48 6.13 14.138 5.905 6.66-.224 11.318-2.597 13.04-3.238 1.723-.642 2.449 1.424 1.132 2.107-.878.456-2.435 1.267-4.67 2.433a85.609 85.609 0 0 1 1.308 15.025c0 4.179-.067 8.762-.201 13.75l-.462.005C16.366 120 0 103.634 0 83.446 0 77.755.462 72.41 1.385 67.41c.752 2.88 2.353 4.998 4.803 6.353-3.639-16.65-.202-22.755 3.975-28.39l.37-.496.374-.495.375-.496.376-.499.376-.501c1.378-1.849 2.736-3.803 3.859-6.205-1.193 7.3-2.789 13.48 3.237 19.167-.615-4.949.68-7.607 2.128-10.155l.301-.526.303-.528c1.256-2.207 2.447-4.555 2.447-8.444 0-2.658-.514-4.625-1.03-6.417l-.11-.382c-.09-.31-.18-.618-.265-.924l-.1-.366c-.964-3.6-1.231-7.16 3.785-15.32zm.362 60.513a1.956 1.956 0 1 1 0 3.912 1.956 1.956 0 0 1 0-3.912zm-7.822-1.303a1.956 1.956 0 1 1 0 3.911 1.956 1.956 0 0 1 0-3.911zm1.724-52.09c-1.748 1.783-1.368 6.975.641 11.534 2.01 4.56-.64 7.99-3.481 12.214.496-5.62-.022-6.955-2.435-11.277-2.413-4.321.893-10.042 5.275-12.471zM38.01 7.823c2.863 3.923 6.438 4.636 6.882 9.708.173 1.977-.4 3.183-1.062 4.427l-.175.326c-.995 1.859-2.062 3.954-1.082 8.9-4.664-6.324-4.422-9.137-3.705-11.882l.093-.35.097-.352.098-.354c.668-2.429 1.267-5.141-1.146-10.423zM27.64 0c4.268 2.928 8.19 4.834 8.537 9.804.133 1.904-.193 3.226-.51 4.475l-.105.415c-.463 1.858-.786 3.68.615 7.184-6.71-4.065-6.53-7.04-5.966-10.404l.067-.39.068-.394c.495-2.904.906-6.17-2.707-10.69z"/><path d="M108.856 115.216c.384 0 .672-.144.864-.432.192-.288.288-.624.288-1.008-.048-.576-.168-.936-.36-1.08-.192-.144-.48-.216-.864-.216h-.432c-1.248 0-2.136-.216-2.664-.648-.528-.432-.84-.936-.936-1.512-.096-.576-.144-1.488-.144-2.736V63.88c0-.912-.384-1.368-1.152-1.368h-.216c-.432.048-.984.192-1.656.432-2.16.816-4.752 1.44-7.776 1.872-.384.048-.672.204-.864.468-.192.264-.288.54-.288.828 0 .624.144 1.02.432 1.188.288.168.72.252 1.296.252 1.248 0 2.136.216 2.664.648.528.432.828.936.9 1.512.072.576.108 1.488.108 2.736v35.136c0 1.248-.048 2.16-.144 2.736-.096.576-.408 1.08-.936 1.512-.528.432-1.416.648-2.664.648-.624 0-1.044.06-1.26.18-.216.12-.348.492-.396 1.116 0 .384.108.72.324 1.008.216.288.492.432.828.432 2.832-.144 5.328-.216 7.488-.216 2.256 0 4.776.072 7.56.216zm18.584.648c1.872 0 3.492-.252 4.86-.756 1.368-.504 2.484-1.104 3.348-1.8.864-.696 1.992-1.692 3.384-2.988h.144v4.032c0 .528.024.9.072 1.116.048.216.24.324.576.324l11.592-.792c.816-.144 1.224-.552 1.224-1.224 0-.912-.408-1.368-1.224-1.368-3.792 0-5.688-1.416-5.688-4.248V83.248c0-.912-.384-1.368-1.152-1.368h-.216c-.432.048-.984.192-1.656.432-2.16.816-4.752 1.44-7.776 1.872-.384.048-.672.204-.864.468-.192.264-.288.54-.288.828 0 .624.144 1.02.432 1.188.288.168.72.252 1.296.252 1.248 0 2.136.216 2.664.648.528.432.828.936.9 1.512.072.576.108 1.488.108 2.736v15.12c-.528 1.104-1.584 2.208-3.168 3.312-1.584 1.104-3.504 1.656-5.76 1.656-1.824 0-3.432-.588-4.824-1.764-1.392-1.176-2.088-2.868-2.088-5.076V83.248c0-.912-.384-1.368-1.152-1.368h-.216c-.432.048-.984.192-1.656.432-2.16.816-4.752 1.44-7.776 1.872-.384.048-.672.204-.864.468-.192.264-.288.54-.288.828 0 .624.144 1.02.432 1.188.288.168.72.252 1.296.252 1.248 0 2.136.216 2.664.648.528.432.828.936.9 1.512.072.576.108 1.488.108 2.736v13.32c0 3.216.96 5.808 2.88 7.776s4.512 2.952 7.776 2.952zm86.984-.648c.336 0 .612-.144.828-.432.216-.288.324-.624.324-1.008-.048-.576-.168-.936-.36-1.08-.192-.144-.48-.216-.864-.216h-.432c-1.248 0-2.136-.216-2.664-.648-.528-.432-.84-.936-.936-1.512-.096-.576-.144-1.488-.144-2.736V92.248c0-3.216-.96-5.808-2.88-7.776s-4.512-2.952-7.776-2.952c-2.688 0-4.884.48-6.588 1.44-1.704.96-3.492 2.328-5.364 4.104h-.144c-.816-1.728-2.064-3.084-3.744-4.068-1.68-.984-3.672-1.476-5.976-1.476-1.872 0-3.54.288-5.004.864a11.67 11.67 0 0 0-3.924 2.556c-.936.916-1.587 1.556-1.952 1.918l-.208.206h-.216v-4.536c0-.912-.384-1.368-1.152-1.368h-.216c-.288.048-.84.192-1.656.432-2.016.768-4.584 1.392-7.704 1.872-.384.048-.672.204-.864.468-.192.264-.288.54-.288.828 0 .624.144 1.02.432 1.188.288.168.72.252 1.296.252 1.248 0 2.136.216 2.664.648.528.432.828.936.9 1.512.072.576.108 1.488.108 2.736v16.488c0 1.248-.048 2.16-.144 2.736-.096.576-.408 1.08-.936 1.512-.528.432-1.416.648-2.664.648-.624 0-1.044.06-1.26.18-.216.12-.348.492-.396 1.116 0 .384.108.72.324 1.008.216.288.492.432.828.432 2.832-.144 5.328-.216 7.488-.216 2.256 0 4.776.072 7.56.216.384 0 .672-.144.864-.432.192-.288.288-.624.288-1.008-.048-.576-.168-.936-.36-1.08-.192-.144-.48-.216-.864-.216h-.432c-1.248 0-2.136-.216-2.664-.648-.528-.432-.84-.936-.936-1.512-.096-.576-.144-1.488-.144-2.736V90.448c.624-1.2 1.632-2.328 3.024-3.384 1.392-1.056 3.192-1.584 5.4-1.584 1.824 0 3.42.588 4.788 1.764 1.368 1.176 2.052 2.868 2.052 5.076v15.359c.003.309.014.841.036 1.597.024.84-.156 1.584-.54 2.232-.384.648-1.368.972-2.952.972-.624 0-1.044.06-1.26.18-.216.12-.348.492-.396 1.116 0 .384.096.72.288 1.008.192.288.48.432.864.432 2.832-.144 5.232-.216 7.2-.216 2.064 0 4.512.072 7.344.216.384 0 .672-.144.864-.432.192-.288.288-.624.288-1.008-.048-.576-.156-.936-.324-1.08-.168-.144-.468-.216-.9-.216h-.432c-1.248 0-2.148-.24-2.7-.72s-.816-1.224-.792-2.232c.024-1.008.036-1.656.036-1.944V90.448c.576-1.2 1.56-2.328 2.952-3.384s3.192-1.584 5.4-1.584c1.824 0 3.432.588 4.824 1.764 1.392 1.176 2.088 2.868 2.088 5.076v15.264c0 1.248-.048 2.16-.144 2.736-.096.576-.408 1.08-.936 1.512-.528.432-1.416.648-2.664.648-.624 0-1.044.06-1.26.18-.216.12-.348.492-.396 1.116 0 .384.096.72.288 1.008.192.288.48.432.864.432 2.832-.144 5.328-.216 7.488-.216 2.256 0 4.776.072 7.56.216zm20.672.648c2.88 0 5.46-.66 7.74-1.98 2.28-1.32 4.164-3.18 5.652-5.58.096-.144.144-.36.144-.648 0-.576-.24-1.008-.72-1.296a1.34 1.34 0 0 0-.864-.288c-.24 0-.48.12-.72.36-1.296 2.112-2.664 3.612-4.104 4.5-1.44.888-3.192 1.332-5.256 1.332-3.888 0-6.756-1.308-8.604-3.924-1.848-2.616-2.772-6.156-2.772-10.62h17.496c1.632 0 2.88-.288 3.744-.864.864-.576 1.296-1.656 1.296-3.24-.336-3.696-1.656-6.636-3.96-8.82-2.304-2.184-5.592-3.276-9.864-3.276-3.168 0-5.976.816-8.424 2.448a16.436 16.436 0 0 0-5.652 6.372c-1.32 2.616-1.98 5.34-1.98 8.172 0 3.216.648 6.144 1.944 8.784 1.296 2.64 3.204 4.728 5.724 6.264 2.52 1.536 5.58 2.304 9.18 2.304zm2.232-20.88h-11.736c.192-3.408 1.08-6.084 2.664-8.028 1.584-1.944 3.6-2.916 6.048-2.916 2.208 0 3.912.768 5.112 2.304 1.2 1.536 1.8 3.408 1.8 5.616-.144 2.016-1.44 3.024-3.888 3.024zM96.9 140.198c1.048 0 1.942-.163 2.681-.489.74-.326 1.305-.78 1.697-1.361.392-.582.588-1.256.588-2.023 0-.567-.106-1.062-.32-1.483a3.308 3.308 0 0 0-.865-1.08 5.104 5.104 0 0 0-1.234-.742 8.552 8.552 0 0 0-1.429-.467l-1.227-.307a7.77 7.77 0 0 1-.799-.236 3.543 3.543 0 0 1-.722-.348 1.629 1.629 0 0 1-.515-.509 1.307 1.307 0 0 1-.188-.71c.004-.327.1-.62.287-.875.188-.256.459-.458.812-.607.354-.15.778-.224 1.272-.224.703 0 1.275.156 1.716.467.442.31.692.746.752 1.304h2.281c-.012-.737-.219-1.39-.62-1.96-.4-.568-.95-1.014-1.652-1.335-.7-.322-1.516-.483-2.445-.483-.916 0-1.736.161-2.46.483-.725.321-1.297.772-1.717 1.352-.42.58-.63 1.255-.63 2.026 0 .937.312 1.688.937 2.253.624.565 1.475.986 2.553 1.263l1.49.383c.469.12.879.255 1.23.406.352.151.626.339.822.562.196.224.296.506.3.847a1.561 1.561 0 0 1-.339.982c-.221.279-.527.496-.917.652-.39.155-.843.233-1.358.233-.495 0-.941-.075-1.34-.224a2.23 2.23 0 0 1-.968-.677c-.247-.303-.388-.682-.422-1.138h-2.333c.034.87.261 1.606.68 2.211.42.606 1.004 1.066 1.752 1.381.748.315 1.631.473 2.65.473zm9.949-.063h.245a4.4 4.4 0 0 0 1.361-.23l-.39-1.81a3.51 3.51 0 0 1-.278.058 2.318 2.318 0 0 1-.4.032 1.47 1.47 0 0 1-.523-.09.741.741 0 0 1-.38-.335c-.097-.164-.145-.402-.145-.713v-5.075h1.937v-1.79h-1.937v-2.352h-2.313l-.001 2.352h-1.393v1.79h1.393v5.458c-.003.537.098.996.305 1.376l.095.158c.27.41.638.711 1.103.905.464.194.986.282 1.566.265l-.245.001zm5.69.063c.51 0 .957-.071 1.338-.214.382-.143.7-.332.953-.569.253-.236.45-.491.591-.764h.077V140h2.224v-6.571c0-.652-.118-1.195-.354-1.63a2.813 2.813 0 0 0-.937-1.032 4.015 4.015 0 0 0-1.285-.547 6.122 6.122 0 0 0-1.412-.166c-.686 0-1.313.101-1.88.304a3.72 3.72 0 0 0-1.438.907 3.474 3.474 0 0 0-.844 1.5l2.161.306c.115-.337.338-.629.668-.876s.779-.37 1.345-.37c.537 0 .949.132 1.234.396.286.264.428.637.428 1.118v.039c0 .221-.082.384-.246.489-.164.104-.425.18-.783.23-.358.049-.824.103-1.4.163a9.925 9.925 0 0 0-1.383.246 4.286 4.286 0 0 0-1.199.495 2.374 2.374 0 0 0-.837.87c-.205.362-.307.82-.307 1.374 0 .643.144 1.185.431 1.624.288.439.68.77 1.176.994.497.223 1.056.335 1.678.335zm.6-1.7c-.481 0-.878-.109-1.189-.326-.31-.217-.466-.54-.466-.965 0-.299.079-.543.236-.732.158-.19.373-.338.646-.444a4.04 4.04 0 0 1 .927-.23l.543-.077c.209-.03.42-.064.633-.103.213-.038.406-.083.578-.134.173-.05.295-.106.368-.166v1.157c0 .362-.093.697-.278 1.004a2.033 2.033 0 0 1-.79.738c-.34.185-.743.278-1.208.278zm9.892 1.637h.245a4.4 4.4 0 0 0 1.361-.23l-.39-1.81a3.51 3.51 0 0 1-.278.058 2.318 2.318 0 0 1-.4.032 1.47 1.47 0 0 1-.524-.09.741.741 0 0 1-.38-.335c-.096-.164-.144-.402-.144-.713v-5.075h1.937v-1.79h-1.937v-2.352h-2.314v2.352h-1.393v1.79h1.393v5.458c-.003.537.098.996.305 1.376l.095.158c.27.41.638.711 1.103.905.464.194.986.282 1.566.265l-.245.001zm4.027-11.347c.367 0 .681-.122.943-.367.262-.245.393-.54.393-.885 0-.35-.13-.647-.393-.892a1.332 1.332 0 0 0-.943-.368c-.366 0-.682.123-.946.368a1.171 1.171 0 0 0-.396.892c0 .345.13.64.393.885.262.245.579.367.95.367zm1.15 11.212v-9.818h-2.313V140h2.314zm6.161.192c.823 0 1.539-.15 2.148-.45a3.6 3.6 0 0 0 1.445-1.254c.353-.535.558-1.15.613-1.844h-2.211a2.185 2.185 0 0 1-.377.901c-.184.248-.41.436-.681.566-.27.13-.577.195-.918.195-.481 0-.9-.129-1.256-.387-.355-.257-.631-.626-.827-1.105-.196-.48-.294-1.054-.294-1.723 0-.66.099-1.227.297-1.7.198-.473.476-.837.834-1.09.358-.254.773-.38 1.246-.38.559 0 1.005.158 1.34.476.334.317.546.712.636 1.185h2.211c-.05-.707-.26-1.326-.626-1.857a3.652 3.652 0 0 0-1.474-1.233c-.615-.292-1.322-.438-2.118-.438-.96 0-1.79.214-2.49.642a4.312 4.312 0 0 0-1.627 1.79c-.383.765-.575 1.646-.575 2.643 0 .993.188 1.87.565 2.63.378.761.917 1.357 1.618 1.787.7.43 1.541.646 2.521.646zm13.357 0c.818 0 1.542-.132 2.173-.397.63-.264 1.124-.631 1.48-1.102.356-.471.536-1.015.54-1.633-.004-.703-.233-1.272-.687-1.707-.454-.435-1.145-.752-2.074-.952l-1.675-.358c-.499-.115-.856-.262-1.07-.441a.846.846 0 0 1-.317-.697c-.004-.333.156-.603.482-.812.326-.209.73-.313 1.212-.313.358 0 .66.057.907.172.248.115.445.267.592.454.147.188.25.388.31.601l2.11-.23c-.159-.835-.569-1.498-1.231-1.988-.663-.49-1.57-.735-2.72-.735-.784 0-1.476.122-2.074.368-.6.245-1.066.59-1.4 1.035-.335.445-.5.97-.496 1.576-.004.716.22 1.307.672 1.773.451.467 1.148.798 2.09.994l1.674.352c.452.098.786.239 1 .422a.876.876 0 0 1 .324.697c0 .332-.168.611-.502.837-.335.226-.777.339-1.327.339-.532 0-.965-.113-1.297-.339-.333-.226-.55-.56-.652-1.004l-2.257.218c.141.903.578 1.607 1.31 2.112.734.505 1.701.758 2.903.758zm6.768-11.404c.366 0 .68-.122.942-.367.263-.245.394-.54.394-.885 0-.35-.131-.647-.394-.892a1.332 1.332 0 0 0-.942-.368c-.367 0-.682.123-.946.368a1.171 1.171 0 0 0-.397.892c0 .345.131.64.393.885s.579.367.95.367zm1.15 11.212v-9.818h-2.314V140h2.314zm5.353.135h.245a4.4 4.4 0 0 0 1.362-.23l-.39-1.81a3.51 3.51 0 0 1-.278.058 2.318 2.318 0 0 1-.4.032 1.47 1.47 0 0 1-.524-.09.741.741 0 0 1-.38-.335c-.096-.164-.144-.402-.144-.713l-.001-5.075h1.938v-1.79h-1.938v-2.352h-2.313v2.352h-1.393v1.79h1.393v5.458c-.004.537.098.996.304 1.376l.096.158c.27.41.638.711 1.102.905.465.194.987.282 1.566.265l-.245.001zm7.109.057c.763 0 1.44-.116 2.032-.349.593-.232 1.08-.56 1.461-.984.381-.424.64-.922.777-1.493l-2.16-.242c-.103.277-.254.509-.455.696-.2.188-.436.33-.71.425a2.743 2.743 0 0 1-.913.144c-.503 0-.942-.107-1.317-.323a2.21 2.21 0 0 1-.876-.933c-.208-.407-.313-.896-.313-1.467l.001.058h6.839v-.71c0-.86-.12-1.603-.358-2.227-.239-.625-.566-1.14-.982-1.544a3.943 3.943 0 0 0-1.431-.898 5.032 5.032 0 0 0-1.717-.291c-.937 0-1.753.214-2.448.642a4.355 4.355 0 0 0-1.62 1.79c-.386.765-.579 1.652-.579 2.662 0 1.027.192 1.92.576 2.676.383.756.932 1.34 1.646 1.75.713.412 1.562.618 2.547.618zm-2.464-6.104c.03-.356.129-.687.294-.995.198-.368.476-.667.834-.894a2.27 2.27 0 0 1 1.246-.342c.444 0 .832.1 1.167.3.334.2.595.474.783.821.187.348.283.743.288 1.186l-4.616.001.004-.077zm16.523 9.76c.883 0 1.67-.135 2.366-.406.694-.27 1.242-.68 1.642-1.227.4-.548.601-1.233.601-2.055v-9.978h-2.282v1.623h-.128a3.917 3.917 0 0 0-.505-.763 2.802 2.802 0 0 0-.891-.697c-.373-.194-.847-.291-1.423-.291-.754 0-1.438.193-2.051.578-.614.386-1.1.95-1.461 1.694-.36.744-.54 1.655-.54 2.733 0 1.07.18 1.96.54 2.669.36.71.846 1.242 1.457 1.598a3.998 3.998 0 0 0 2.05.533c.562 0 1.03-.085 1.402-.255.373-.17.673-.382.901-.633.228-.252.402-.497.521-.735h.115v1.86c0 .703-.215 1.212-.645 1.528-.43.315-.974.473-1.63.473-.465 0-.85-.063-1.154-.189a2.113 2.113 0 0 1-.725-.467 2.489 2.489 0 0 1-.41-.54l-2.083.505c.14.443.392.85.754 1.221.362.37.842.667 1.438.889.597.221 1.31.332 2.141.332zm.02-5.804c-.507 0-.935-.125-1.282-.374-.347-.25-.61-.599-.786-1.048-.177-.45-.265-.975-.265-1.576 0-.592.087-1.122.262-1.588.174-.467.434-.834.78-1.103.345-.268.775-.403 1.29-.403.5 0 .92.13 1.263.387.343.258.603.62.78 1.084.177.464.265 1.005.265 1.623 0 .627-.09 1.164-.268 1.611-.18.447-.441.79-.786 1.03-.346.238-.763.357-1.253.357zm10.814 2.148c.762 0 1.44-.116 2.032-.349.593-.232 1.08-.56 1.46-.984.382-.424.641-.922.777-1.493l-2.16-.242c-.102.277-.254.509-.454.696-.2.188-.437.33-.71.425a2.743 2.743 0 0 1-.913.144c-.503 0-.942-.107-1.317-.323a2.21 2.21 0 0 1-.876-.933c-.209-.407-.313-.896-.313-1.467l.001.058h6.838v-.71c0-.86-.119-1.603-.358-2.227-.238-.625-.565-1.14-.98-1.544a3.943 3.943 0 0 0-1.433-.898 5.032 5.032 0 0 0-1.716-.291c-.937 0-1.753.214-2.448.642a4.355 4.355 0 0 0-1.62 1.79c-.386.765-.579 1.652-.579 2.662 0 1.027.192 1.92.575 2.676.384.756.933 1.34 1.646 1.75.714.412 1.563.618 2.548.618zm-2.464-6.104c.03-.356.128-.687.293-.995.199-.368.477-.667.835-.894a2.27 2.27 0 0 1 1.246-.342c.443 0 .832.1 1.167.3.334.2.595.474.783.821.187.348.283.743.287 1.186l-4.615.001.004-.077zm10.6 5.912v-5.753c0-.473.088-.876.265-1.208.176-.332.421-.587.735-.764a2.152 2.152 0 0 1 1.077-.265c.596 0 1.064.185 1.403.556.338.37.508.884.508 1.54V140h2.314v-6.251c.004-.785-.133-1.451-.412-2.001-.28-.55-.672-.97-1.177-1.26-.505-.29-1.096-.434-1.773-.434-.733 0-1.348.162-1.845.486a2.8 2.8 0 0 0-1.083 1.31h-.115v-1.668h-2.212V140h2.314zm12.507.192c.763 0 1.44-.116 2.033-.349.592-.232 1.079-.56 1.46-.984.382-.424.64-.922.777-1.493l-2.16-.242c-.103.277-.254.509-.454.696-.2.188-.437.33-.71.425a2.743 2.743 0 0 1-.914.144c-.503 0-.942-.107-1.317-.323a2.21 2.21 0 0 1-.875-.933c-.21-.407-.314-.896-.314-1.467l.001.058h6.839v-.71c0-.86-.12-1.603-.358-2.227-.239-.625-.566-1.14-.981-1.544a3.943 3.943 0 0 0-1.432-.898 5.032 5.032 0 0 0-1.716-.291c-.938 0-1.754.214-2.449.642a4.355 4.355 0 0 0-1.62 1.79c-.386.765-.578 1.652-.578 2.662 0 1.027.191 1.92.575 2.676.383.756.932 1.34 1.646 1.75.714.412 1.563.618 2.547.618zm-2.463-6.104c.03-.356.128-.687.293-.995.198-.368.476-.667.834-.894a2.27 2.27 0 0 1 1.247-.342c.443 0 .832.1 1.166.3.335.2.596.474.783.821.188.348.284.743.288 1.186l-4.616.001.005-.077zM221.778 140v-5.772c0-.418.096-.786.287-1.106.192-.32.455-.57.79-.75a2.344 2.344 0 0 1 1.134-.273c.196 0 .4.014.61.042.212.028.366.059.464.093v-2.129a3.163 3.163 0 0 0-.4-.048 6.548 6.548 0 0 0-.43-.016c-.563 0-1.063.155-1.5.464-.436.309-.744.746-.923 1.313h-.103v-1.636h-2.243V140h2.314zm6.966.198c.511 0 .957-.071 1.339-.214.381-.143.699-.332.952-.569.254-.236.45-.491.591-.764h.077V140h2.225v-6.571c0-.652-.119-1.195-.355-1.63a2.813 2.813 0 0 0-.937-1.032 4.015 4.015 0 0 0-1.284-.547 6.122 6.122 0 0 0-1.413-.166c-.686 0-1.313.101-1.88.304a3.72 3.72 0 0 0-1.438.907 3.474 3.474 0 0 0-.843 1.5l2.16.306c.115-.337.338-.629.668-.876s.779-.37 1.346-.37c.537 0 .948.132 1.233.396.286.264.429.637.429 1.118v.039c0 .221-.082.384-.246.489-.165.104-.426.18-.783.23-.358.049-.825.103-1.4.163a9.925 9.925 0 0 0-1.384.246 4.286 4.286 0 0 0-1.199.495 2.374 2.374 0 0 0-.837.87c-.205.362-.307.82-.307 1.374 0 .643.144 1.185.432 1.624.287.439.68.77 1.176.994.496.223 1.055.335 1.678.335zm.6-1.7c-.481 0-.877-.109-1.188-.326-.312-.217-.467-.54-.467-.965 0-.299.079-.543.236-.732.158-.19.373-.338.646-.444a4.04 4.04 0 0 1 .927-.23l.543-.077c.209-.03.42-.064.633-.103.213-.038.406-.083.578-.134.173-.05.296-.106.368-.166v1.157c0 .362-.093.697-.278 1.004a2.033 2.033 0 0 1-.79.738c-.34.185-.743.278-1.208.278zm9.892 1.637h.245a4.4 4.4 0 0 0 1.361-.23l-.39-1.81a3.51 3.51 0 0 1-.278.058 2.318 2.318 0 0 1-.4.032 1.47 1.47 0 0 1-.523-.09.741.741 0 0 1-.38-.335c-.096-.164-.144-.402-.144-.713l-.001-5.075h1.937v-1.79h-1.937v-2.352h-2.313l-.001 2.352h-1.393v1.79h1.393v5.458c-.003.537.098.996.305 1.376l.095.158c.27.41.638.711 1.103.905.464.194.986.282 1.566.265l-.245.001zm7.045.057c.958 0 1.79-.211 2.492-.633a4.276 4.276 0 0 0 1.634-1.77c.385-.76.578-1.646.578-2.66 0-1.014-.193-1.902-.578-2.665a4.267 4.267 0 0 0-1.634-1.777c-.703-.422-1.534-.633-2.492-.633-.96 0-1.79.21-2.493.633a4.267 4.267 0 0 0-1.634 1.777c-.385.763-.578 1.651-.578 2.665s.193 1.9.578 2.66c.386.758.93 1.348 1.634 1.77.703.422 1.534.633 2.493.633zm.012-1.854c-.532 0-.974-.144-1.326-.431-.352-.288-.614-.675-.786-1.16a4.824 4.824 0 0 1-.26-1.624c0-.601.087-1.145.26-1.633.172-.488.434-.877.786-1.167.352-.29.794-.435 1.326-.435.52 0 .955.145 1.304.435.35.29.61.679.783 1.167.173.488.26 1.032.26 1.633 0 .596-.087 1.138-.26 1.623-.172.486-.433.873-.783 1.16-.35.288-.784.432-1.304.432zm8.462 1.662v-5.772c0-.418.096-.786.288-1.106.191-.32.455-.57.789-.75a2.344 2.344 0 0 1 1.135-.273c.196 0 .4.014.61.042.211.028.365.059.463.093v-2.129a3.163 3.163 0 0 0-.399-.048 6.548 6.548 0 0 0-.431-.016c-.563 0-1.063.155-1.5.464-.436.309-.744.746-.923 1.313h-.102v-1.636h-2.244V140h2.314zM95.129 158v-8.028h2.033v-1.79h-2.033v-.774c0-.328.065-.592.195-.79l.07-.095c.177-.207.481-.31.911-.31.184 0 .35.016.499.048.15.032.273.063.37.093l.46-1.79a6.108 6.108 0 0 0-.69-.173 5.338 5.338 0 0 0-1.067-.096c-.567 0-1.082.11-1.547.326a2.568 2.568 0 0 0-1.109.985c-.275.439-.412.988-.412 1.649l-.001.927h-1.45v1.79h1.45V158h2.321zm7.26.192c.959 0 1.79-.211 2.493-.633a4.276 4.276 0 0 0 1.633-1.77c.386-.76.579-1.646.579-2.66 0-1.014-.193-1.902-.579-2.665a4.267 4.267 0 0 0-1.633-1.777c-.703-.422-1.534-.633-2.493-.633-.959 0-1.79.21-2.493.633a4.267 4.267 0 0 0-1.633 1.777c-.386.763-.578 1.651-.578 2.665s.192 1.9.578 2.66c.386.758.93 1.348 1.633 1.77.703.422 1.534.633 2.493.633zm.013-1.854c-.533 0-.975-.144-1.326-.431-.352-.288-.614-.675-.787-1.16a4.824 4.824 0 0 1-.258-1.624c0-.601.086-1.145.258-1.633.173-.488.435-.877.787-1.167.351-.29.793-.435 1.326-.435.52 0 .955.145 1.304.435.35.29.61.679.783 1.167.173.488.259 1.032.259 1.633 0 .596-.086 1.138-.259 1.623-.173.486-.434.873-.783 1.16-.35.288-.784.432-1.304.432zm8.462 1.662v-5.772c0-.418.096-.786.287-1.106.192-.32.455-.57.79-.75a2.344 2.344 0 0 1 1.134-.273c.196 0 .4.014.61.042.212.028.366.059.464.093v-2.129a3.163 3.163 0 0 0-.4-.048 6.548 6.548 0 0 0-.43-.016c-.563 0-1.063.155-1.5.464-.437.309-.744.746-.923 1.313h-.103v-1.636h-2.243V158h2.314zm12.832 0c1.33 0 2.468-.262 3.417-.786a5.281 5.281 0 0 0 2.18-2.257c.504-.98.757-2.152.757-3.515 0-1.36-.252-2.527-.755-3.503a5.28 5.28 0 0 0-2.157-2.247c-.935-.522-2.053-.783-3.352-.783h-4.526V158h4.436zm-.115-2.052h-1.95v-8.987h2.02c.887 0 1.63.165 2.228.495.599.33 1.051.827 1.358 1.49.307.662.46 1.494.46 2.496 0 1.001-.153 1.835-.46 2.502-.307.667-.765 1.168-1.374 1.502-.61.335-1.37.502-2.282.502zm12.463 2.244c.763 0 1.44-.116 2.033-.349.592-.232 1.079-.56 1.46-.984.382-.424.64-.922.777-1.493l-2.16-.242c-.103.277-.254.509-.454.696-.2.188-.437.33-.71.425a2.743 2.743 0 0 1-.914.144c-.503 0-.942-.107-1.317-.323a2.21 2.21 0 0 1-.875-.933c-.21-.407-.314-.896-.314-1.467l.001.058h6.839v-.71c0-.86-.12-1.603-.358-2.227-.239-.625-.566-1.14-.981-1.544a3.943 3.943 0 0 0-1.432-.898 5.032 5.032 0 0 0-1.716-.291c-.938 0-1.754.214-2.449.642a4.355 4.355 0 0 0-1.62 1.79c-.386.765-.578 1.652-.578 2.662 0 1.027.191 1.92.575 2.676.383.756.932 1.34 1.646 1.75.714.412 1.563.618 2.547.618zm-2.463-6.104c.03-.356.128-.687.293-.995.198-.368.476-.667.834-.894a2.27 2.27 0 0 1 1.247-.342c.443 0 .832.1 1.166.3.335.2.596.474.783.821.188.348.284.743.288 1.186l-4.616.001.005-.077zM144.18 158v-5.753c0-.473.088-.876.265-1.208.177-.332.422-.587.735-.764a2.152 2.152 0 0 1 1.077-.265c.597 0 1.064.185 1.403.556.339.37.508.884.508 1.54V158h2.314v-6.251c.005-.785-.133-1.451-.412-2.001-.28-.55-.671-.97-1.176-1.26-.505-.29-1.096-.434-1.774-.434-.733 0-1.348.162-1.844.486a2.8 2.8 0 0 0-1.084 1.31h-.115v-1.668h-2.211V158h2.314zm12.444.192c.958 0 1.79-.211 2.492-.633a4.276 4.276 0 0 0 1.634-1.77c.385-.76.578-1.646.578-2.66 0-1.014-.193-1.902-.578-2.665a4.267 4.267 0 0 0-1.634-1.777c-.703-.422-1.534-.633-2.492-.633-.96 0-1.79.21-2.493.633a4.267 4.267 0 0 0-1.633 1.777c-.386.763-.579 1.651-.579 2.665s.193 1.9.579 2.66c.385.758.93 1.348 1.633 1.77.703.422 1.534.633 2.493.633zm.012-1.854c-.532 0-.974-.144-1.326-.431-.352-.288-.614-.675-.786-1.16a4.824 4.824 0 0 1-.26-1.624c0-.601.087-1.145.26-1.633.172-.488.434-.877.786-1.167.352-.29.794-.435 1.326-.435.52 0 .955.145 1.304.435.35.29.61.679.783 1.167.173.488.26 1.032.26 1.633 0 .596-.087 1.138-.26 1.623-.172.486-.433.873-.783 1.16-.35.288-.784.432-1.304.432z" fill-rule="nonzero"/></g></svg>